<svg width="67" height="31" viewBox="0 0 67 31" fill="none" xmlns="http://www.w3.org/2000/svg">
<path d="M16.7154 30.0213C15.5718 30.0213 14.6942 29.7021 14.0824 29.0638C13.4707 28.3989 13.0984 27.5612 12.9654 26.5505H12.766C12.367 27.8537 11.6356 28.8378 10.5718 29.5027C9.50798 30.1676 8.21809 30.5 6.70213 30.5C4.54787 30.5 2.88564 29.9415 1.71543 28.8245C0.571809 27.7075 0 26.2048 0 24.3165C0 22.242 0.744681 20.6862 2.23404 19.6489C3.75 18.6117 5.95745 18.0931 8.85638 18.0931H12.6064V16.3378C12.6064 15.0612 12.2606 14.0771 11.5692 13.3856C10.8777 12.6941 9.80053 12.3484 8.33777 12.3484C7.11436 12.3484 6.11702 12.6144 5.34575 13.1463C4.57447 13.6782 3.92287 14.3564 3.39096 15.1809L0.797872 12.8271C1.48936 11.6569 2.46011 10.6995 3.71011 9.95479C4.96011 9.18351 6.59575 8.79787 8.61702 8.79787C11.3032 8.79787 13.3644 9.42287 14.8005 10.6729C16.2367 11.9229 16.9548 13.7181 16.9548 16.0585V26.4707H19.1489V30.0213H16.7154ZM7.93883 27.1888C9.29521 27.1888 10.4122 26.8963 11.2899 26.3112C12.1676 25.6995 12.6064 24.8883 12.6064 23.8777V20.8856H8.93617C5.93085 20.8856 4.42819 21.8165 4.42819 23.6782V24.3963C4.42819 25.3271 4.73404 26.0319 5.34575 26.5106C5.98404 26.9628 6.8484 27.1888 7.93883 27.1888Z" fill="#A361FF"/>
<path d="M27.8389 30.0213C26.3495 30.0213 25.2325 29.6489 24.4878 28.9043C23.7697 28.133 23.4107 27.0692 23.4107 25.7128V0.5H27.7591V26.4707H30.6314V30.0213H27.8389Z" fill="#A361FF"/>
<path d="M40.3365 30.0213C38.8205 30.0213 37.6769 29.6356 36.9057 28.8644C36.1344 28.0665 35.7487 26.9495 35.7487 25.5133V12.8271H32.5174V9.2766H34.2727C34.9908 9.2766 35.4828 9.11702 35.7487 8.79787C36.0413 8.47872 36.1876 7.96011 36.1876 7.24202V3.6117H40.0971V9.2766H44.4455V12.8271H40.0971V26.4707H44.1264V30.0213H40.3365Z" fill="#A361FF"/>
<path d="M48.7279 30.0213V26.4707H66.9714V30.0213H48.7279Z" fill="#A361FF"/>
</svg>
